<?xml version="1.0" encoding="UTF-8" standalone="no"?><!DOCTYPE svg PUBLIC "-//W3C//DTD SVG 1.1//EN" "http://www.w3.org/Graphics/SVG/1.1/DTD/svg11.dtd"><svg width="1000px" height="1000px" version="1.1" xmlns="http://www.w3.org/2000/svg" xmlns:xlink="http://www.w3.org/1999/xlink" xml:space="preserve" xmlns:serif="http://www.serif.com/" style="fill-rule:evenodd;clip-rule:evenodd;stroke-linejoin:round;stroke-miterlimit:2;"><path d="M612,115C612,116.1 611.55,117 611,117C610.45,117 610,116.1 610,115C610,113.9 610.45,113 611,113C611.55,113 612,113.9 612,115ZM918.78,875.82C916.81,877.79 915,877.15 915,874.5C915,871.78 917.05,871.15 918.85,873.32C919.66,874.29 919.64,874.96 918.78,875.82ZM904.9,817.09C902.35,818.7 899,818.15 899,816.12C899,813.71 901.53,811.61 903.51,812.37C905.71,813.21 906.54,816.04 904.9,817.09ZM836.54,577.94C835.55,579.54 830.35,579.21 828.57,577.43C826.74,575.6 826.63,574.56 827.99,572.02C828.85,570.42 829.44,570.32 832.51,571.27C836.03,572.34 837.99,575.59 836.54,577.94ZM840,567.74C840,569.48 839.43,570 837.5,570C835.5,570 835,569.5 835,567.5C835,565.94 835.57,565 836.5,565C837.42,565 838,564.06 838,562.57C838,559.65 840.61,556.78 842.87,557.21C845.49,557.72 845.01,563.27 842.25,564.49C840.87,565.09 840,566.35 840,567.74ZM570.99,73.51C568.92,76.01 567,75.28 567,72C567,69.65 567.44,69 569.03,69C571.55,69 572.64,71.52 570.99,73.51ZM501.95,64.1C500.17,67.41 496.27,66.06 497.6,62.59C498.27,60.87 498.99,60.68 501.4,61.6C502.6,62.06 502.73,62.64 501.95,64.1ZM835.82,884.76C836.17,887.22 835.06,887.66 833.2,885.8C831.41,884.01 831.74,881.8 833.75,882.19C834.71,882.37 835.64,883.53 835.82,884.76ZM940,903.46C940,905.48 934.69,905.53 933.03,903.54C932.05,902.36 932.24,901.47 933.97,899.04C936.32,895.74 938.72,895.1 939.65,897.53C940.16,898.87 940.39,898.85 941.47,897.37C943.13,895.1 946,896.3 946,899.27C946,902.54 944.16,904.16 941.85,902.92C940.42,902.16 940,902.28 940,903.46ZM862,544.08C862,546.5 861.59,547 859.58,547C856.35,547 854.97,541.8 857.46,539.04C859.4,536.91 863.43,537.44 862.56,539.71C862.25,540.51 862,542.48 862,544.08ZM541.43,741.43C539.62,743.24 538.22,743.36 535.75,741.92C533.66,740.7 533.44,736.71 535.38,735.1C537.12,733.66 541.46,735.15 542.36,737.51C543.21,739.71 543.23,739.63 541.43,741.43ZM757.46,737.06C756.15,739.19 753.22,739.97 752.02,738.53C750.85,737.12 751.46,733 752.84,733C754.38,733 758,736.19 757.46,737.06ZM350.84,100.1C350.4,103.15 347,104.02 347,101.07C347,99.93 347.19,99 347.42,99C347.65,99 348.59,98.71 349.51,98.36C350.82,97.85 351.1,98.22 350.84,100.1ZM762.45,163.08C761.61,164.44 760.48,164.21 757.94,162.16C755.27,159.99 755.88,157 758.99,157C761.1,157 763.55,161.3 762.45,163.08ZM855.47,559.64C852.12,562.1 850,561.21 850,557.33C850,555.4 850.52,555 853.03,555C856.76,555 858.16,557.68 855.47,559.64ZM907,883C907,883.55 906.33,884 905.5,884C904.67,884 904,883.55 904,883C904,882.45 904.67,882 905.5,882C906.33,882 907,882.45 907,883ZM831.8,599.8C830.59,601.01 826.78,601.44 825.81,600.48C825.09,599.76 826.05,595.09 827.04,594.47C828.23,593.74 833,596.13 833,597.46C833,598.09 832.46,599.14 831.8,599.8ZM865.5,560.49C865.5,564.21 862.82,565.01 860.67,561.94C858.61,558.99 859.62,556.82 862.88,557.2C865.05,557.45 865.5,558.01 865.5,560.49ZM511,182C511,183.33 510.33,184 509,184C507.67,184 507,183.33 507,182C507,180.67 507.67,180 509,180C510.33,180 511,180.67 511,182ZM662,118.01C662,118.43 661.21,119.69 660.25,120.81C658.9,122.39 657.99,122.64 656.25,121.95C653.44,120.84 653.03,115.99 655.75,116.01C658.49,116.04 662,117.15 662,118.01ZM770.82,927.33C771.18,930.39 769.47,930.84 766.44,928.5C764.52,927.02 764.52,926.98 766.46,925.49C769.05,923.48 770.43,924.07 770.82,927.33ZM833.07,655.96C828.97,658.16 825.56,656.1 826.17,651.82C826.55,649.13 828.59,648.51 832.33,649.93C835.5,651.14 835.91,654.44 833.07,655.96ZM584,939.03C584,939.56 582.83,940 581.39,940C579.43,940 578.94,939.61 579.39,938.42C579.73,937.55 580,936.01 580,934.99C580,932.18 590.27,931.03 593.04,933.53C594.88,935.2 595.12,935.21 596.86,933.63C598.4,932.23 598.9,932.18 599.84,933.31C601.41,935.2 598.7,939.05 596.99,937.37C596.13,936.52 595.07,936.62 592.84,937.73C591.08,938.61 588.65,938.98 586.93,938.64C585.29,938.31 584,938.48 584,939.03ZM681,926.58C681,929.9 675.04,926.28 674.97,922.92C674.95,921.9 674.66,921.99 673.92,923.25C672.58,925.55 670.73,925.46 668.5,923C667.5,921.9 666.08,921 665.35,921C664.61,921 664,921.9 664,923C664,924.62 663.33,925 660.47,925C658.53,925 655.32,924.33 653.35,923.5C651.37,922.67 647.84,922 645.5,922C642.99,922 640.75,921.4 640.04,920.54C638.65,918.88 639.45,917 641.53,917C642.4,917 642.71,916.4 642.34,915.43C641.91,914.32 641.42,914.18 640.67,914.93C640.08,915.52 638.34,916 636.8,916C634.51,916 634,915.56 634,913.61C634,912.29 634.71,910.94 635.58,910.61C638.29,909.57 642,909.94 642.03,911.25C642.05,911.94 642.55,911.66 643.14,910.64C643.94,909.27 643.88,908.14 642.9,906.31C641.74,904.15 641.11,903.92 638.04,904.48C632.99,905.41 628.87,905.41 626.04,904.47C623.73,903.71 623.8,903.92 627.14,908.08C632.05,914.19 632.18,914.52 630.85,917.43C629.64,920.09 628.52,920.66 627.56,919.09C627.25,918.6 626.1,918.42 625.01,918.71C623.48,919.11 623.16,919.78 623.62,921.61C624.03,923.26 623.79,923.99 622.86,923.97C620.98,923.92 617,920.46 617,918.88C617,917.94 616.54,918.03 615.37,919.2C613.3,921.27 609.25,919.72 608.8,916.69C608.4,914.01 606,913.24 606,915.79C606,917.18 605.05,917.97 602.75,918.51C600.96,918.93 599.16,919.21 598.75,919.13C598.34,919.06 598,919.85 598,920.89C598,923.62 594.95,924.53 594.29,922C593.96,920.72 592.93,920 591.45,920C589.53,920 589.16,920.49 589.31,922.75C589.47,925.06 589.06,925.55 586.75,925.82C584.38,926.09 584,925.78 584,923.57C584,921.84 584.54,921 585.67,921C587.95,921 586.9,920.12 584.11,919.7C582.86,919.51 581.51,918.82 581.11,918.18C580.1,916.54 568.48,915.42 567.58,916.87C567.2,917.49 565.78,918 564.44,918C563.1,918 562,918.45 562,919C562,920.57 556.38,920.17 555,918.5C553.1,916.21 549,916.56 549,919C549,921.45 546.17,921.57 537.5,919.48C529.72,917.6 525.56,917.62 523.95,919.56C522.98,920.73 521.63,920.96 518.58,920.49C512.13,919.49 511,918.98 511,917.1C511,914.31 509.8,913.83 508.28,916.01C506.9,917.99 502.82,918.64 499.58,917.39C497.24,916.5 497.29,894.28 499.64,889.74C501.72,885.7 501.73,880.05 499.66,876.88C498.22,874.69 498.04,868.01 497.98,816.07L497.91,757.73L500.13,755.36C501.35,754.06 503.32,753 504.5,753C507.21,753 511,749.05 511,746.22C511,742.32 516.65,740.94 524.13,743.02C527.03,743.83 527.88,744.63 528.36,747.04C528.69,748.69 529.66,750.32 530.52,750.65C533.23,751.69 533.57,749.94 531.03,748.02C528.88,746.4 528.73,745.89 529.77,743.61C530.99,740.93 533.37,740.91 534.39,743.58C535.09,745.41 543.17,745.36 548,743.5C549.92,742.76 550.94,742.12 550.25,742.08C548.3,741.96 548.78,737.51 550.96,735.53C552.04,734.56 553.62,734.02 554.46,734.35C556.3,735.05 556.52,740.08 554.8,741.8C554.09,742.51 554.02,743 554.63,743C556.09,743 559.34,739.18 562.01,734.31C563.44,731.7 565.47,729.65 567.4,728.89C569.11,728.21 573.88,725.32 578,722.46C582.12,719.6 586.57,716.93 587.87,716.53C590.81,715.61 601.33,705.83 611.5,694.56C614.59,691.13 617.32,689.01 618.64,689.01C620.25,689 620.93,688.2 621.42,685.75C621.83,683.64 623.26,681.63 625.5,680C627.39,678.62 628.96,676.94 628.97,676.25C629.02,674.18 633.14,674.8 633.7,676.96C634.18,678.81 634.39,678.77 637.61,676.21C639.47,674.72 641,672.6 641,671.5C641.01,669.23 647.91,659.12 652.66,654.43C654.84,652.27 655.55,650.88 654.95,649.92C653.99,648.37 657.45,644 659.64,644C660.35,644 661.4,643.13 661.96,642.07C663.36,639.46 663.29,639.2 661.25,639.36C660.12,639.45 659.38,638.66 659.16,637.12C658.87,635.04 659.15,634.8 661.41,635.23C663.4,635.61 664,635.32 664,633.97C664,632.93 665.02,631.96 666.5,631.59C668.26,631.15 669,630.28 669,628.67C669,627.41 670.35,625.08 672,623.5C673.91,621.67 675,619.63 675,617.87C675,614.5 676.54,613.38 678.71,615.16C680.16,616.36 680.21,616.27 679.17,614.33C677.39,610.99 678.84,606 682.14,604.12C685.76,602.05 686.5,600.09 684.27,598.44C682.62,597.23 682.73,596.91 685.75,593.77C687.78,591.66 689,589.39 689,587.7C689,585.97 689.54,585 690.5,585C691.49,585 692,584.01 692,582.13C692,580.55 693.16,577.18 694.57,574.66C696.48,571.23 696.89,569.62 696.16,568.31C694.41,565.2 697.41,561.12 701.99,560.39L705.93,559.76L702.87,555.31C700.39,551.71 699.92,550.22 700.43,547.53C700.77,545.7 701.64,543.71 702.36,543.11C703.63,542.06 705.28,537.5 706.5,531.64C707.09,528.81 707.14,528.79 712.55,529.46C715.55,529.84 718,529.75 718,529.27C718,528.79 716.42,526.87 714.5,525C712.39,522.96 711,520.64 711,519.18C711,517.06 711.35,516.82 713.75,517.3C716.14,517.78 716.52,517.52 716.65,515.36C716.78,513.08 716.48,512.89 713.17,513.18C710.37,513.43 709.47,513.11 709.2,511.75C709,510.72 709.46,510 710.33,510C712.79,510 715.85,503.81 714.79,500.96C714.29,499.62 713.97,497.17 714.08,495.51C714.18,493.86 713.55,490.88 712.68,488.9C710.81,484.64 710.95,479.31 713.03,475.93C713.84,474.59 716.03,470.47 717.88,466.76C720.85,460.81 721.11,459.69 720.08,457.19C719.2,455.06 719.19,453.65 720.05,451.43C720.68,449.82 721.51,446.22 721.9,443.44C722.54,438.89 722.38,438.21 720.3,436.64C718.38,435.19 718.17,434.55 719.08,432.85C719.69,431.72 719.94,429.87 719.64,428.74C718.91,425.93 720.64,423 723.04,423C724.7,423 725,422.31 725,418.43C725,414.46 724.76,413.94 723.17,414.45C720.65,415.25 717.62,411.78 718.47,409.08C718.86,407.86 718.42,405.83 717.39,404.08C715.95,401.64 715.87,400.86 716.94,399.57C717.86,398.47 718.03,396.41 717.54,392.51C716.94,387.71 717.08,387 718.57,387C720.05,387 720.2,386.24 719.7,381.4C719.12,375.81 716.95,372 714.35,372C713.55,372 713,370.9 713,369.33C713,367.86 712.35,365.94 711.56,365.06C710.76,364.19 709.62,360.37 709.01,356.59C708.41,352.81 707.45,348.85 706.89,347.79C706.32,346.74 705.99,344.62 706.15,343.1C706.35,341.23 705.55,339.26 703.72,337.08C702.17,335.24 701,332.64 701,331.04C701,329.49 700.33,326.94 699.51,325.36C698.68,323.79 698.01,321.71 698.01,320.75C698,319.79 697.13,318.13 696.06,317.06C694.99,315.99 693.59,313.18 692.95,310.81C692.31,308.44 690.93,304.85 689.88,302.84C688.42,300.04 688.2,298.59 688.95,296.64C689.71,294.63 689.63,294.21 688.55,294.62C687.8,294.91 685.79,294.43 684.09,293.55C681.2,292.05 680.58,291.07 680.88,288.43C680.95,287.84 679.88,286.3 678.51,285.01L676.01,282.66L674.88,285.91C673.52,289.81 672.71,289.1 671,282.5C670.29,279.75 668.61,276.32 667.28,274.87C665.94,273.42 664.72,270.72 664.55,268.87C664.38,267.02 663.86,264.15 663.39,262.5L662.54,259.5L662.02,263.5C661.57,266.97 661.13,267.54 658.75,267.82C656.48,268.08 655.98,267.73 655.88,265.82C655.82,264.54 655.86,263.05 655.97,262.5C656.39,260.46 651.52,253 649.77,253C648.8,253 648,252.57 648,252.03C648,249.95 641.91,241.62 639.16,239.95C637.57,238.98 634.96,236.26 633.38,233.91C630.33,229.38 615.98,219.81 610.4,218.59C608.8,218.24 605.52,216.39 603.11,214.48C600.69,212.56 598.44,211 598.11,211C597.77,211 596.6,209.64 595.5,207.98C594.08,205.83 592.43,204.79 589.77,204.36C587.72,204.02 585.52,203.13 584.9,202.38C584.27,201.62 582.64,201 581.27,201C579.55,201 578.95,200.57 579.33,199.59C579.67,198.7 578.79,197.74 576.91,196.96C575.29,196.29 572.84,194.41 571.48,192.79C570.12,191.17 569,190.18 569,190.59C569,191.01 569.73,192.15 570.62,193.13C572.91,195.67 571.67,198 568.03,198C565.9,198 565,197.52 565,196.37C565,195.07 564.3,194.85 561.61,195.29C559.34,195.66 557.44,195.3 555.88,194.2C554.6,193.3 552.3,192.7 550.77,192.86C548.36,193.11 548,192.8 548,190.47C548,188.08 548.29,187.85 550.58,188.43C552.26,188.85 552.94,188.71 552.52,188.04C552.17,187.47 549.62,187 546.85,187C542.86,187 541.43,186.54 539.94,184.75C538.34,182.83 538.06,182.75 538.03,184.25C537.99,186.42 534,186.66 534,184.5C534,183.68 534.79,182.99 535.75,182.97C537.37,182.94 537.37,182.86 535.68,181.88C534.28,181.07 533.41,181.23 531.93,182.57C530.08,184.24 530,184.22 530,182.13C530,180.06 529.88,180.03 527.6,181.52C526.29,182.39 524.98,183.97 524.7,185.05C524.31,186.53 523.32,187 520.59,187C518.45,187 516.95,186.5 516.88,185.75C516.82,185.06 516.71,183.98 516.63,183.34C516.34,180.84 511.39,178.11 507.73,178.45C505.43,178.67 503.95,178.32 503.63,177.48C503.35,176.76 500.59,175.64 497.49,175C492.52,173.97 491.62,174.03 489.95,175.55C488.2,177.13 487.99,177.14 487.41,175.64C486.89,174.27 485.35,174.04 477.9,174.25C473.01,174.39 469.01,174.83 469,175.23C469,175.63 463.71,175.85 457.25,175.73C447.6,175.54 444.92,175.82 442.27,177.27C439.12,178.99 438.98,178.98 436.91,176.91C435.15,175.15 434.07,174.89 430.67,175.44C428.4,175.8 425.87,176.69 425.03,177.42C424.19,178.16 420.35,178.98 416.5,179.26C408.18,179.86 392.98,185.48 374.13,194.93C351.23,206.41 333.44,218.85 316.1,235.5C288.15,262.33 270.6,290.56 258.07,328.83C254.77,338.91 251.04,348.81 249.78,350.83C247.99,353.72 247.47,356.1 247.36,362C247.28,366.12 245.38,380.52 243.13,394C240.88,407.48 238.75,421.2 238.38,424.5C238.02,427.8 236.72,432.52 235.5,435C234.27,437.48 232.7,441.98 232.01,445C231.31,448.02 230.29,451.07 229.74,451.76C229.01,452.68 230.13,454.5 233.87,458.45C238.71,463.58 240.09,466 238.14,466C236.3,466 235.94,485.49 237.5,500.5C244.9,571.52 266.05,622.08 304.47,660.54C315.94,672.02 342.78,693 346,693C347.22,693 348.23,694.18 349,696.5C349.64,698.42 350.71,700 351.4,700C352.54,700 358.97,706.72 361.04,710.07C361.74,711.2 362.17,711.23 363.16,710.24C363.84,709.56 365.86,709 367.64,709C369.42,709 371.16,708.55 371.5,708C372.54,706.32 375.48,706.86 382.14,709.95C389.56,713.4 402.59,717.28 414.85,719.7C419.61,720.64 424.06,721.82 424.75,722.33C425.65,722.98 426,727.18 426,737.11C426,749.9 425.84,751.08 424,752.23C421.46,753.82 421.47,755.47 424.03,758.03C426,760 426.04,760.97 425.65,793.78C425.15,835.87 425.32,832.71 423.52,835.28C421.63,837.97 421.6,839 423.39,839C424.15,839 425.12,840.46 425.54,842.25C426.81,847.63 427.2,897.85 426.03,904.65C425.35,908.65 425.31,911.69 425.93,913.33C426.61,915.1 426.54,916.14 425.68,916.85C423.69,918.5 400.33,919.52 398.53,918.03C397.59,917.24 395.76,917.01 393.64,917.41C390.57,917.98 390.15,917.76 389.01,915.02C387.98,912.55 387.18,912 384.55,912C382.47,912 380.57,912.83 379.12,914.37C376.69,916.96 368.55,918.7 366.56,917.05C364.49,915.33 352.57,914.63 349.91,916.07C346.42,917.96 343.62,918.09 299.78,918.3L260.06,918.5L254.32,911.62L250.6,913.81C248.44,915.08 245.21,916 242.87,916C240.66,916 238.22,916.63 237.45,917.41C235.87,918.99 229.06,918.61 225.2,916.72C223.39,915.85 222.35,915.93 220.36,917.14C218.34,918.36 216.69,918.49 212.17,917.76C205.83,916.74 142.7,917.35 139.37,918.46C137.81,918.98 136.6,918.51 134.87,916.71C132.1,913.84 127.37,912.45 125.53,913.98C124.82,914.56 120.34,915.54 115.57,916.16L106.9,917.28L100.84,911.5L98.92,914C95.11,918.96 94.8,919.18 92.63,918.46C91.46,918.08 88.58,917.54 86.24,917.28C82.61,916.87 81.91,916.41 81.44,914.15C81.13,912.69 80.45,909.57 79.92,907.22C79.39,904.86 78.06,896.31 76.97,888.22C75.87,880.12 74.31,869.96 73.49,865.64C72.67,861.32 72,853.77 72,848.87C72,840.33 71.89,839.91 69.5,838.82C68.1,838.18 67,836.84 67,835.76C67,834.71 64.53,818.92 61.52,800.67C58.5,782.43 55.13,760.3 54.03,751.5C52.19,736.82 49.78,704.89 50.45,704.21C50.95,703.72 55.86,710.17 61.71,719C90.77,762.86 104.73,780.84 119.5,793.46C124.65,797.86 126.44,798.7 135.89,801.17C145.76,803.76 147.9,803.95 166.5,803.98C181.49,804 187.16,804.36 189.14,805.39C190.59,806.15 192.84,806.56 194.15,806.31C195.63,806.03 197.93,806.82 200.3,808.43C203.89,810.87 204.2,810.91 206.56,809.37C207.93,808.47 209.37,807.24 209.77,806.62C210.3,805.8 223.24,805.69 257.5,806.18C326.34,807.18 330.4,807.2 340.12,806.44L349,805.74L349,801.43C349,799.02 349.84,795.65 350.9,793.81C351.94,791.99 353.12,789.42 353.51,788.1C354.14,786 353.96,785.78 352.05,786.28C350.85,786.59 346.19,785.77 341.69,784.44C337.18,783.12 332.71,782.03 331.75,782.02C330.79,782.01 330,781.36 330,780.57C330,778.7 326.12,777.48 324.7,778.9C324.09,779.51 322.94,780 322.13,780C321.32,780 311.84,776.67 301.08,772.6C290.31,768.53 278.12,764.21 274,763.01C264.21,760.16 258,757.06 258,755.02C258,752.29 255.81,751 251.19,751C247.95,751 246,750.34 243.82,748.5C242.18,747.12 240,746 238.96,746C237.92,746 235.48,745.24 233.53,744.31C230.53,742.88 230,742.13 230,739.27C230,737.43 229.09,734.14 227.98,731.96C226.04,728.16 225.76,728 221.05,728C216.99,728 215.8,727.56 214.15,725.46C212.58,723.47 211.59,723.06 209.57,723.57C206.37,724.38 202,721.75 202,719.02C202,717.82 192.87,707.96 178.19,693.29C164.91,680.03 151.47,665.59 147.81,660.67C139.07,648.91 129.79,633.18 124.87,621.78C122.66,616.68 120.44,612.07 119.93,611.55C119.42,611.03 119,605.75 119,599.81L119,589.03L115.24,586.65C110,583.34 109.53,582.6 106.64,573C96.43,539.13 88.58,464.99 90.98,425.09C93.51,383.21 98.71,355.02 111.08,316.17C116.77,298.3 120.19,292.76 125.39,293.04C131.52,293.36 134.65,292.98 136.42,291.68C138.15,290.42 138.14,290.19 136.11,286.22C134.95,283.94 134,281.14 134,280C134,277.27 137.24,270.99 139.89,268.6C141.05,267.55 142,265.8 142,264.71C142,263.62 143.01,260.1 144.25,256.88C146.36,251.4 146.71,251.03 149.77,251.01C152.42,251 153.25,250.47 154.09,248.25C154.67,246.74 155.73,244.83 156.45,244C157.17,243.18 157.97,239.25 158.24,235.28C158.67,228.89 159.23,227.27 163.06,221.28C168.72,212.41 193.21,188.06 208.01,176.59C222.71,165.19 239,154.48 250.75,148.5C258.09,144.76 260,143.34 260,141.63C260,139.21 263.6,136.45 266.25,136.86C267.21,137.01 268,136.65 268,136.06C268,134.65 271.3,134.7 272.74,136.14C273.6,137 273.75,136.75 273.33,135.14C272.88,133.45 273.21,133 274.88,133C277.14,133 277.69,134.91 275.93,136.67C275.18,137.42 275.32,137.91 276.43,138.34C277.38,138.7 279.34,137.76 281.38,135.97C283.24,134.34 285.26,133 285.86,133C286.46,133 287.65,131.94 288.5,130.64C289.67,128.86 291.29,128.13 295.02,127.68C297.76,127.36 303.48,125.98 307.75,124.62C312.01,123.26 318.07,121.38 321.22,120.45C328.07,118.41 331.04,115.13 327.83,113.12C326.24,112.13 326.09,111.6 327.05,110.44C328.59,108.58 332.41,108.59 333.96,110.46C335.41,112.2 334.52,114 332.22,114C330.9,114 331.01,114.32 332.76,115.54C334.79,116.96 336.18,116.79 350.23,113.44C358.63,111.43 369.63,109.29 374.69,108.68C382.1,107.79 383.97,107.24 384.34,105.8C384.96,103.42 387.84,102.42 390.05,103.8C391.4,104.64 392.1,104.59 392.95,103.56C394.9,101.2 401.21,101.01 403.66,103.22C406.42,105.73 409.23,105.19 410.07,101.99C410.62,99.91 410.83,99.78 411.36,101.25C412.76,105.09 412.8,105.8 411.67,107.02C410.91,107.84 411.56,107.75 413.5,106.77C415.15,105.94 418.19,104.53 420.25,103.64C422.31,102.76 424,101.58 424,101.02C424,100.46 424.69,100 425.54,100C428.37,100 432,96.85 432,94.38C432,90.47 433.69,91.69 434.4,96.11C434.81,98.69 434.63,100.74 433.91,101.61C432.97,102.74 433.3,103 435.68,103C437.28,103 439.12,102.47 439.77,101.83C440.41,101.19 442.95,100.67 445.42,100.67C448.24,100.67 450.1,100.17 450.43,99.33C451.11,97.54 454.95,97.64 457.01,99.51C458.72,101.05 462.44,101.56 469.4,101.2C473.12,101.01 473.23,100.91 471.65,99.17C469.61,96.92 469.54,94.63 471.45,93.04C472.61,92.08 473.42,92.21 475.42,93.67C477.47,95.16 477.83,96.08 477.38,98.64C476.83,101.72 478.26,104.01 479.49,102.02C479.84,101.46 482.14,101 484.6,101C488.08,101 489.67,100.43 491.65,98.45C495.07,95.02 497.54,95.6 497.35,99.79C497.16,103.93 498.45,103.92 499.64,99.77C500.47,96.87 501.07,96.45 505.5,95.71C508.22,95.25 511.07,94.36 511.83,93.72C512.94,92.81 513.72,93.14 515.59,95.31C516.88,96.81 518.07,97.97 518.22,97.88C518.38,97.78 519.53,98.03 520.78,98.43C522.35,98.93 524.23,98.47 526.76,96.98C530,95.07 531.32,94.89 537.66,95.48C544.31,96.11 544.96,96.37 545.86,98.83C546.77,101.3 546.85,101.33 546.92,99.25C547.04,95.95 551,96.11 551,99.42C551,100.75 550.66,102.02 550.25,102.25C549.84,102.48 550.1,102.52 550.83,102.34C551.56,102.15 554.55,102.28 557.48,102.63C561.68,103.12 563.06,103.74 564.06,105.61C565.6,108.49 568.6,109.58 570.54,107.97C571.33,107.31 572.73,107.07 573.66,107.42C574.59,107.78 577.84,107.55 580.89,106.92C586.09,105.84 586.52,105.9 587.84,107.88C588.61,109.05 589.66,110 590.17,110C590.68,110 592.15,111.22 593.43,112.71C595.54,115.16 596.02,115.31 598.43,114.21C602.56,112.33 604.42,112.75 606.32,115.97C607.8,118.47 608.53,118.84 610.94,118.36C613.28,117.89 614.13,118.28 615.52,120.39C617.4,123.26 619,123.8 619,121.57C619,119.42 622.05,116.81 623.78,117.47C624.74,117.84 626.29,116.88 627.94,114.9C630.24,112.15 630.98,111.84 633.79,112.45C637.96,113.37 637.86,114.74 633.5,116.56C629.6,118.19 629.42,118.65 631.53,121.44C633.65,124.24 633.34,125.3 630.61,124.62C627.89,123.93 625.65,125.95 626.17,128.62C626.74,131.55 631.43,132.4 635.99,130.39C638.19,129.41 640,128.3 640,127.91C640,126.17 643.11,126.3 645.44,128.13C648.06,130.19 648.89,134.33 646.93,135.55C645.76,136.27 650.28,139 652.65,139C653.43,139 654.33,139.7 654.66,140.56C655.01,141.46 655.9,141.87 656.8,141.52C657.65,141.2 658.63,141.41 658.99,141.99C659.43,142.7 661.03,142.55 663.95,141.52C669.25,139.65 669.35,139.65 668.64,141.5C668.15,142.78 668.43,142.77 670.53,141.39C672.74,139.94 673,139.93 673,141.33C673,142.18 672.55,143.16 672,143.5C670.74,144.28 670.69,146 671.92,146C672.43,146 674.18,144.88 675.82,143.5C677.45,142.12 679.76,141 680.95,141C682.96,141 683.01,141.15 681.62,143.13C680.36,144.93 680.34,145.48 681.48,146.62C682.62,147.77 682.42,148.46 680.2,150.99C678.74,152.65 676.9,154 676.11,154C675.32,154 674.94,154.28 675.28,154.62C675.62,154.95 677.26,154.76 678.93,154.18C680.59,153.59 682.18,153.48 682.45,153.93C682.73,154.37 685.02,154.97 687.54,155.25C692.79,155.84 696.73,158.92 697.2,162.8C697.36,164.2 698.01,165.51 698.63,165.72C700.53,166.34 703,163.04 703,159.89C703,156.75 706.58,151 708.54,151C709.17,151 710.16,152.01 710.73,153.25L711.76,155.5L713.06,152.71C714.67,149.25 717.58,149.47 717.32,153.03C717.22,154.39 716.84,156.73 716.46,158.23C715.56,161.83 716.66,166 718.52,166C719.42,166 720,166.95 720,168.43C720,169.77 720.46,172.08 721.03,173.57C721.82,175.66 721.69,176.82 720.47,178.68C718.52,181.66 719.23,184.15 722.45,185.63C724.84,186.74 724.91,186.65 725.2,182.21C725.37,179.69 726.06,177.47 726.75,177.24C727.44,177.02 728,177.53 728,178.38C728,179.23 728.9,180.41 730,181C731.1,181.59 732,182.53 732,183.1C732,183.67 734.08,186.55 736.63,189.5C740.42,193.88 742.15,195.08 746.13,196.03C748.81,196.67 751,197.77 751,198.46C751,199.23 752.99,199.96 756.14,200.33C758.96,200.66 762,201.56 762.89,202.32C763.77,203.08 765.29,203.98 766.25,204.32C768.85,205.24 768.37,206.87 765.27,207.65L762.54,208.33L765.52,209.42C770.44,211.2 773.1,213.04 772.4,214.16C772.04,214.75 772.29,215.56 772.95,215.97C773.87,216.54 773.89,217.69 773.04,220.86C772.09,224.38 771.53,225 769.29,225C765.01,225 767.49,226.19 772.62,226.59C777.7,226.99 778.95,228.06 779,232C779.02,233.75 780.64,235.91 784.43,239.24C787.64,242.05 790.09,245.12 790.45,246.78C791.23,250.31 794.64,256 795.99,256C797.8,256 797.06,253.67 794.32,250.81L791.64,248.01L793.99,245.51C796.85,242.47 799.08,242.33 801.54,245.04C803.12,246.79 803.24,247.67 802.35,251C801.68,253.48 801.65,255.25 802.26,255.86C802.79,256.39 803.05,258.88 802.85,261.41C802.49,265.94 802.53,266 805.53,266C808.28,266 808.94,266.68 812.29,273C814.33,276.84 816,280.49 816,281.09C816,281.7 815.05,283.52 813.89,285.15C812.18,287.55 811.91,288.94 812.46,292.55C813.1,296.84 814.21,298.09 815.5,296C816.73,294 817.99,295.1 820.47,300.35C821.86,303.29 823,306.06 823,306.5C823,306.95 824.12,308.79 825.5,310.59C826.88,312.39 828,314.52 828,315.31C828,316.11 828.67,317.32 829.5,318C831.23,319.43 831.46,323.27 829.99,326.02C829.18,327.52 829.57,328.57 831.87,331.2C834.94,334.7 835.94,339.37 835.92,350.05C835.91,354.39 836.36,356.01 837.95,357.46C839.62,358.97 840,360.53 840,365.96C840,370.27 840.52,373.3 841.47,374.56C843.69,377.49 843.43,387.25 841,392C838.27,397.34 838.42,400.35 841.5,402C843.49,403.07 844.03,404.16 844.14,407.42C844.21,409.71 844.46,410.51 844.71,409.25C845.18,406.8 847.85,406.25 849.8,408.2C850.46,408.86 851,411.53 851,414.14C851,416.75 851.45,419.16 852,419.5C853.54,420.45 853.18,423.99 851.49,424.64C849.46,425.42 847,423.25 847,420.68C847,419.14 846.71,418.89 845.87,419.73C845.14,420.46 845.02,422.17 845.54,424.68C845.98,426.78 846.41,430.2 846.5,432.27C846.62,434.84 847.52,436.93 849.33,438.83C850.8,440.36 852,442.01 852,442.51C852,443 853.43,444.88 855.17,446.68C858.3,449.91 858.32,449.99 856.48,452.03C854.49,454.22 854.24,455 853.32,461.77C852.91,464.75 853.17,466.57 854.18,467.77C857.83,472.13 859,477.33 858.85,488.5C858.77,494.55 858.38,500.4 857.98,501.5C857,504.21 858.4,507.58 861.69,510.41C864.07,512.46 864.28,513.08 863.33,515.18C862.48,517.03 862.55,518.03 863.61,519.49C865.24,521.71 865.44,525.61 863.97,526.52C863.41,526.87 863.01,527.68 863.09,528.33C863.48,531.48 862.92,532.22 860.48,531.75C859.09,531.49 857.71,531.66 857.42,532.13C857.12,532.61 855.22,533 853.19,533C850.42,533 848.31,533.94 844.79,536.75C839.85,540.69 839.03,542 841.48,542C842.3,542 844.12,544.29 845.54,547.08C847.57,551.08 847.86,552.46 846.93,553.58C845.41,555.42 841.9,555.39 839.44,553.53C837.08,551.74 835,551.58 835,553.19C835,553.84 834.06,555.37 832.91,556.59C831.17,558.45 831.02,559.17 832,561C833.61,564.01 832.47,568 830,568C826.71,568 824.06,573.98 823.52,582.66C823.39,584.73 823.72,585.66 824.5,585.36C826.72,584.51 828.41,587.79 827.17,590.53C825.86,593.39 823.44,593.7 820.83,591.35C819.82,590.43 819,590.16 819,590.73C819,591.3 820.12,592.51 821.5,593.41C824.17,595.16 824.82,598.78 822.82,600.78C821.91,601.69 821.95,602.53 822.96,604.43C824.1,606.55 824.05,607.27 822.67,609.39C821.11,611.76 821.14,611.88 823.26,612.18C825.8,612.55 826.86,615.84 824.85,617.11C824.11,617.58 822.25,617.98 820.73,617.98C818.27,618 818.03,617.72 818.59,615.5C819.14,613.31 818.89,613 816.61,613C814.93,613 814,613.55 814,614.54C814,615.39 813.07,617.33 811.94,618.87C810.17,621.27 810.05,622.02 811.11,624.33C812.03,626.36 812.05,627.56 811.19,629.26C809.43,632.73 807.03,640.29 807.01,642.42C807.01,643.48 807.77,645.19 808.71,646.24C810.34,648.03 810.31,648.36 808.07,652.57C806.78,655 805.18,657 804.52,657C803.85,657 802.5,657.9 801.5,659C799.48,661.23 796.98,661.58 795.27,659.87C793.98,658.58 791,659.39 791,661.03C791,661.63 791.48,661.82 792.06,661.46C793.96,660.29 798,661.94 798,663.9C798,666.1 796.42,667.5 793,668.33C791.62,668.67 789.71,670.35 788.74,672.07C787.77,673.79 786.09,675.43 784.99,675.71C782.41,676.39 782.42,679.04 785,679.71C786.66,680.14 787,681.07 787,685.12C787,687.8 786.59,690 786.08,690C783.39,690 782,688.53 781.94,685.64C781.89,682.78 781.77,682.68 780.69,684.44C780.04,685.51 778.51,687.42 777.3,688.69C776.08,689.96 774.82,692.69 774.49,694.75C773.23,702.56 773.08,702.86 770.25,703.18C768.09,703.43 767.43,704.09 767.18,706.24C766.79,709.69 763.56,712 759.12,712C755.8,712 755.75,712.06 757.43,713.92C759.09,715.76 759.06,715.91 756.64,717.5C755.03,718.56 754,720.27 753.81,722.23C753.32,727.14 750.9,727.86 745.96,724.59C742.6,722.37 741.57,722.08 740.89,723.15C739.38,725.53 739.94,727 742.35,727C745.51,727 748.37,730.27 747.52,732.93C746.84,735.07 743.59,735.76 742.5,734C742.09,733.33 741.2,733.36 739.86,734.07C738.75,734.67 737.2,734.91 736.42,734.61C735.64,734.31 735,734.46 735,734.95C735,735.44 734.73,736.55 734.39,737.42C734.01,738.42 734.33,739 735.27,739C736.09,739 737.32,739.67 738,740.5C739.74,742.59 737.61,745 734.02,745C732.08,745 729.4,746.73 724.74,751C721.14,754.3 717.51,757 716.68,757C715.85,757 715.02,757.44 714.83,757.98C714.65,758.52 712.48,759.99 710,761.23C707.05,762.72 704.77,764.84 703.34,767.41C700.97,771.7 697.87,774.1 697.22,772.16C696.45,769.86 693.94,771.06 693.35,774C692.84,776.56 692.29,777 689.62,777.03C685.79,777.07 682.76,779.2 683.56,781.29C684.28,783.17 681.17,788.22 679.81,787.38C679.28,787.05 678.22,787.67 677.46,788.76C676.69,789.85 674.71,791.01 673.06,791.34C670.88,791.77 670.2,792.37 670.63,793.47C671.08,794.64 670.48,795 668.11,795C665.67,795 665,794.57 665,793C665,791.9 664.55,791 664,791C663.45,791 663,791.86 663,792.91C663,794.08 661.29,795.9 658.58,797.61C655.29,799.7 654.05,801.18 653.71,803.45C653.45,805.13 653.64,806.65 654.12,806.83C654.61,807.02 655,808.19 655,809.45C655,812.75 658.84,817.3 660.87,816.4C661.77,816.01 666.48,815.79 671.35,815.93C679.22,816.14 680.45,815.93 682.49,814.01L684.79,811.85L688.73,813.86C692.6,815.84 692.74,815.84 695.74,814.01C697.43,812.98 698.97,812.27 699.16,812.43C699.34,812.59 701.41,813.01 703.75,813.37C707.56,813.96 708,813.81 708,812.01C708,810.53 708.66,810 710.53,810C711.92,810 713.33,810.69 713.65,811.53C713.97,812.37 714.97,812.84 715.87,812.58C716.77,812.32 719.06,812.93 720.96,813.94C724.11,815.61 724.63,815.63 726.77,814.23C729.23,812.62 735.82,812.15 737.91,813.45C738.69,813.93 739.34,813.43 739.69,812.08C740.15,810.32 740.79,810.05 743.37,810.49C745.88,810.92 746.84,810.56 748.19,808.65C749.85,806.32 749.79,806.19 744.46,800.6C741.48,797.47 737.69,794.44 736.02,793.86C734.06,793.18 733,792.12 733,790.87C733,788.13 735.58,787.49 739.3,789.31C741.06,790.16 744.63,791.4 747.23,792.06C749.83,792.71 752.46,793.85 753.07,794.58C753.77,795.42 755.25,795.7 757.08,795.33C758.79,794.99 760.62,795.27 761.52,796.01C763.22,797.43 769.86,799.12 774.68,799.36C776.44,799.45 779.25,800.55 780.94,801.8L784.01,804.07L787.74,801.53C791.67,798.86 794.94,798.36 797.96,799.98C799.29,800.69 800.13,800.55 801.02,799.48C803.49,796.5 810,798.98 810,802.9C810,803.61 810.75,803.91 811.75,803.61C817.5,801.91 818.77,801.92 820.53,803.68C821.81,804.96 823.94,805.52 827.66,805.58C831.2,805.63 833.6,806.23 834.88,807.39C835.96,808.37 839.73,809.54 843.58,810.08C848.29,810.75 851.41,811.84 853.76,813.63C856.24,815.52 857.9,816.07 859.93,815.66C861.46,815.36 863.18,815.58 863.75,816.15C864.46,816.86 865.42,816.85 866.83,816.09C869.41,814.71 873.46,816.13 874.97,818.95C875.58,820.08 876.73,821 877.54,821C878.34,821 879.03,821.56 879.07,822.25C879.1,822.94 879.62,822.49 880.22,821.25C881.5,818.61 882.37,818.51 887.87,820.46C891.38,821.69 892,821.7 892,820.51C892,818.19 894.22,817.58 895.64,819.52C896.76,821.06 897.5,821.18 900.29,820.33C903.53,819.33 907.99,820.14 908.01,821.72C908.01,822.15 910.04,822.59 912.51,822.7C914.98,822.82 917,822.48 917,821.95C917,821.43 915.88,821 914.5,821C912.02,821 908,817.91 908,816C908,814.74 908.73,814.75 914.89,816.07C917.63,816.66 920.4,817.78 921.06,818.57C921.71,819.36 922.92,820 923.75,820C924.95,820 925.16,819.07 924.75,815.5C924.31,811.56 924.48,811 926.15,811C927.2,811 928.33,811.69 928.65,812.53C929.11,813.73 929.53,813.8 930.68,812.85C931.71,811.99 931.93,810.57 931.47,807.81C930.92,804.55 931.18,803.67 933.16,802.02C936.02,799.63 937.59,799.5 938.39,801.58C939.43,804.28 939.07,806 937.46,806C936.32,806 936.16,806.45 936.84,807.75C937.34,808.71 938.03,813.1 938.36,817.5C938.69,821.9 939.08,826.57 939.23,827.87C939.47,829.94 938.61,830.96 935.17,832.66C934.99,832.75 935.31,833.72 935.9,834.81C936.7,836.3 936.61,837.08 935.57,837.94C934.62,838.73 933.97,838.77 933.53,838.05C932.22,835.92 931,837.1 931,840.5C931,843.85 930.85,844 927.41,844L923.82,844L924.5,848C925.05,851.27 924.89,852 923.59,852C922.71,852 922,852.67 922,853.5C922,855.27 919.43,855.51 918.4,853.84C918,853.2 917.39,851.29 917.03,849.59C916.33,846.24 916.75,846.32 906.5,847.58C903.75,847.92 899.17,848.17 896.32,848.13C891.39,848.07 891.11,848.21 890.5,850.98C889.93,853.61 889.62,853.81 887.36,852.95C885.99,852.42 883.79,852.27 882.48,852.6C881.17,852.92 878.76,852.53 877.13,851.71C873.75,850.03 872,851.01 872,854.58C872,858.52 869.76,859.26 864.54,857.02C857.96,854.2 856.62,854.41 855.14,858.5C854.3,860.81 853.23,862 851.99,862C850.96,862 849.85,862.44 849.51,862.98C849.13,863.6 848.21,863.52 847.01,862.77C845.41,861.77 844.28,862.16 839.73,865.29C836.77,867.33 833.82,869 833.18,869C832.53,869 832,869.63 832,870.4C832,871.72 822.67,874 817.24,874C816.01,874 814.87,874.84 814.5,876C813.84,878.09 810.17,878.75 808.45,877.08C806.6,875.29 799.9,875.42 798.55,877.27C797.82,878.27 795.97,879 794.17,879C790.64,879 787.95,882.35 789.91,884.31C790.51,884.91 791,886.22 791,887.23C791,888.92 791.21,888.94 793.89,887.56C796.12,886.4 799.02,886.19 806.64,886.6C812.06,886.9 816.95,887.15 817.5,887.16C818.05,887.17 820.64,886.86 823.25,886.46C826.43,885.97 828,886.08 828,886.81C828,887.4 827.55,888.16 827,888.5C825.16,889.64 825.97,891 828.5,891C829.88,891 831,890.55 831,890C831,889.45 832.31,889 833.9,889C836.24,889 837.01,888.41 837.87,885.94C838.9,883 839.18,882.87 844.72,882.85C847.9,882.84 852.87,882.8 855.76,882.77C859.31,882.72 861.61,883.24 862.84,884.35C865.12,886.42 866,886.44 866,884.43C866,883.38 866.59,883.05 867.8,883.44C868.87,883.78 870.96,883 872.96,881.53C875.27,879.83 877.07,879.23 878.68,879.63C879.97,879.96 881.68,879.68 882.48,879.02C884.04,877.72 890.37,878.3 895.28,880.19C897.35,880.99 897.9,881.74 897.46,883.13C897,884.57 897.37,885 899.09,885C900.31,885 902.85,886.17 904.72,887.6C906.76,889.16 908.9,890 910.06,889.69C911.13,889.42 912.25,889.6 912.56,890.09C912.87,890.59 915.38,891 918.15,891C922.35,891 923.27,891.33 923.71,893C924.05,894.29 925.07,895 926.62,895C929.08,895 929.44,895.7 928.39,898.42C927.59,900.52 926.36,900.41 923.77,898C921.39,895.79 920.54,895.68 907.27,895.96L898.03,896.15L894.77,892.71C892.97,890.82 890.68,888.99 889.68,888.64C886.65,887.59 888.11,891.29 891.33,892.83C894.69,894.44 895.66,896.5 894.01,898.49C893.23,899.43 892.92,902.39 893.15,906.73C893.5,913.47 893.49,913.5 890.75,913.82C888.55,914.07 888,913.73 888,912.1C888,909.8 884.5,907.38 883.5,909C883.16,909.55 883.16,910.45 883.5,911C884.33,912.34 883.39,912.26 881.06,910.81C879.6,909.89 876.5,909.88 867.83,910.73C861.6,911.35 855,911.6 853.17,911.3C851.34,911 848.86,911.23 847.67,911.83C843.38,913.96 837.97,914.81 832.05,914.27C823.95,913.54 810.01,916.69 810,919.25C810,921.27 807.01,921.61 805.2,919.8C804.27,918.87 804,918.94 804,920.13C804,921.24 803.22,921.54 801.13,921.23C799.54,921 795.06,921.97 791.07,923.41C780.13,927.35 778.49,926.93 774.54,919.14C773.33,916.76 772.52,916.08 771.77,916.83C771.01,917.59 771.22,918.69 772.47,920.59C774.23,923.28 774.23,923.28 771.72,922.8C770.34,922.53 768.17,922.87 766.91,923.55C765.03,924.56 764.01,924.49 761.33,923.22C758.32,921.78 757.89,921.79 756.19,923.33C753.96,925.35 752.61,925.44 751.14,923.66C749.55,921.75 732.48,921.72 730.9,923.62C729.34,925.5 727.72,925.35 724.79,923.05C722.49,921.24 721.58,921.17 712.47,922.1C707.05,922.66 701.95,923.49 701.12,923.95C700.17,924.49 698.69,924.19 697.1,923.15C695.72,922.24 692.69,921.5 690.37,921.5C686.36,921.5 686.23,921.59 687.78,923.31C689.2,924.88 689.23,925.25 687.96,926.06C685.46,927.67 683.49,926.63 683.67,923.81C683.83,921.56 683.36,921.1 680.32,920.53C675.67,919.66 674.86,920.69 678.25,923.16C679.76,924.27 681,925.8 681,926.58ZM876.82,899.96C879.25,901.37 879.6,901.27 881.39,898.54C883.44,895.4 883.49,890.4 881.48,889.63C880.38,889.21 880.14,888.29 880.62,886.37C881.09,884.49 880.95,883.91 880.15,884.41C879.52,884.8 879,885.77 879,886.56C879,888.25 878.49,888.34 876.12,887.06C874.6,886.25 874.42,886.52 874.8,889.07C875.28,892.38 873.51,895.17 871.1,894.88C870.22,894.78 868.68,895.05 867.68,895.48C866.61,895.94 865.4,895.8 864.73,895.13C863.39,893.79 860,893.62 860,894.89C860,895.38 860.7,896.06 861.56,896.39C862.42,896.72 862.92,897.33 862.67,897.74C862.42,898.16 865.13,898.61 868.68,898.74C872.24,898.87 875.9,899.42 876.82,899.96ZM851,899.61C851,899.82 851.67,900 852.5,900C853.33,900 854,899.56 854,899.03C854,898.5 853.33,898.32 852.5,898.64C851.67,898.95 851,899.39 851,899.61ZM646.71,916.3C646.97,916.74 647.74,916.63 648.42,916.07C649.72,914.99 649.36,909 648,909C647.1,909 646.02,915.12 646.71,916.3ZM653.81,903.83C654.16,907.49 654.21,907.53 658.08,907.16C662.07,906.78 662.82,905.88 660.97,903.71C660.4,903.04 659.38,901.72 658.72,900.77C657.96,899.68 656.74,899.23 655.48,899.57C653.82,900.02 653.52,900.78 653.81,903.83ZM612.75,133.78C611.39,134.43 611.09,134.88 612,134.9C612.83,134.92 614.78,133.81 616.34,132.43C618.66,130.4 618.96,129.66 617.98,128.48C616.42,126.59 615,127.51 615,130.41C615,131.79 614.11,133.12 612.75,133.78ZM783.08,918.42C783.04,919.47 783.27,920.06 783.6,919.73C783.94,919.4 783.97,918.53 783.68,917.81C783.36,917.01 783.13,917.25 783.08,918.42ZM780.66,664.55C780.96,665.35 781.62,666 782.11,666C783.54,666 783.13,664.26 781.55,663.66C780.58,663.29 780.29,663.58 780.66,664.55ZM289,135C289,135.55 289.42,136 289.94,136C290.46,136 291.16,135.55 291.5,135C291.84,134.45 291.42,134 290.56,134C289.7,134 289,134.45 289,135ZM802.44,839.9C803.23,841.17 803.68,841.21 807.81,840.39C810.57,839.84 810.78,839.54 809.93,837.32C809.42,835.97 809,834.67 809,834.43C809,833.48 812.68,834.08 813.81,835.21C814.48,835.88 816.81,836.29 818.98,836.14C821.16,835.98 824.45,836.4 826.29,837.06C829.33,838.16 830.01,838.02 833.73,835.56C836.33,833.84 838.86,832.96 840.66,833.15C845.83,833.7 862.68,831.83 860.5,830.95C859.4,830.5 856.25,830.09 853.5,830.03C850.75,829.96 846.76,829.29 844.63,828.53C842.5,827.77 840.19,827.38 839.48,827.65C838.78,827.92 837.91,827.66 837.54,827.07C837.18,826.48 835.13,826 832.99,826C828.36,826 815.89,821.7 814.57,819.64C813.76,818.39 813.32,818.4 811.26,819.75C809.38,820.98 808.19,821.09 805.5,820.26C802.59,819.37 801.85,819.5 800.32,821.2C798.52,823.18 791.5,827 789.64,827C789.1,827 787.9,826.31 786.97,825.48C784.64,823.36 782.3,824.56 780.99,828.54C780.17,831 780.17,832.46 780.99,833.98C782.1,836.05 783.04,835.94 786.05,833.38C788.31,831.45 795,832.7 795,835.05C795,838.58 796,839.65 798.92,839.23C800.48,839 802.07,839.3 802.44,839.9ZM775.5,673C775.16,673.55 775.58,674 776.44,674C777.3,674 778,673.55 778,673C778,672.45 777.58,672 777.06,672C776.54,672 775.84,672.45 775.5,673ZM664.69,139.36C663.91,141.39 659.14,141.54 658.38,139.56C657.32,136.78 658.46,134.5 660.9,134.5C663.66,134.5 665.6,136.99 664.69,139.36ZM549,923.5C549,924.33 548.11,925 547,925C545.89,925 545,924.33 545,923.5C545,922.67 545.89,922 547,922C548.11,922 549,922.67 549,923.5ZM616.45,929.75C616.93,931.35 616.72,932 615.72,932C613.63,932 610.67,928.31 611.35,926.54C612.47,923.62 615.07,925.26 616.45,929.75ZM547.84,194.98C548.86,197.89 548.79,198 545.98,198C543.06,198 541,195.78 541,192.62C541,188.48 546.2,190.27 547.84,194.98ZM473.39,88.42C473.06,89.29 472.43,90 472,90C471.32,90 470,87.64 470,86.42C470,86.19 470.9,86 472,86C474.2,86 474.27,86.12 473.39,88.42ZM485.23,75.62C484.05,77.41 480.51,78.11 479.2,76.8C477.32,74.92 477.78,73.06 480.44,71.85C484.49,70 487.42,72.3 485.23,75.62ZM879.38,469.76C878.23,471.61 874.89,472.56 873.71,471.38C872.47,470.14 872.94,467.2 874.65,465.5C876.18,463.97 876.44,464 878.38,465.94C880.03,467.58 880.24,468.4 879.38,469.76ZM608.43,935.08C605.79,938 603.82,937.57 604.62,934.25C605.49,930.64 605.48,930.65 608,932C610.07,933.11 610.09,933.25 608.43,935.08ZM947.95,892C946.97,892 946.01,892.48 945.81,893.06C945.62,893.65 945.13,893.8 944.73,893.4C943.65,892.32 943.84,888.22 945,887.5C945.55,887.16 946,885.56 946,883.94C946,882.11 946.52,881 947.38,881C949.84,881 950.89,883.43 950.3,887.77C949.88,890.95 949.29,892 947.95,892ZM545.8,735.8C544.11,737.49 543.33,737.31 541.59,734.82C539.31,731.57 541.29,729.49 544.59,731.65C547.32,733.44 547.51,734.09 545.8,735.8ZM533.93,725.13C532.64,727.54 530.77,727.5 528.52,725.02C527.05,723.4 526.95,722.76 527.98,721.52C529.6,719.57 530.9,719.6 533.14,721.63C534.51,722.86 534.7,723.7 533.93,725.13ZM383.42,200.39C381.28,201.21 381.3,201.22 380.61,199.42C379.55,196.68 379.93,196 382.5,196C385.38,196 386.08,199.37 383.42,200.39ZM396,196.51C394.45,198.37 388,198.53 388,196.7C388,194.06 390.55,190.02 392.23,190.01C393.18,190 394.69,191.13 395.6,192.51C396.92,194.52 397,195.3 396,196.51ZM529.96,192.54C528.12,194.77 525.91,194.01 524.71,190.75C524.19,189.34 524.62,189 526.97,189C530.4,189 531.66,190.5 529.96,192.54ZM519.46,716.14C519.07,717.36 517.92,718 516.1,718C512.55,718 512,717.38 512,713.39C512,709.48 513,708.67 516.28,709.92C519.07,710.98 520.32,713.42 519.46,716.14ZM798,681.57C798,683.44 797.47,684 795.7,684C791.93,684 789.22,679.84 792.25,678.7C793.13,678.37 792.93,677.79 791.6,676.77C789.87,675.44 789.82,675.02 791.09,672.15C792.03,670.04 793.19,669 794.62,669C799.45,669 800.63,675.89 796,677.03L793.5,677.65L795.75,678.39C797.26,678.89 798,679.93 798,681.57ZM863.38,424.88C862.9,427.24 862.22,428 860.54,428C857.51,428 857,427.26 857,422.83C857,419.12 857.11,419 860.5,419C864.24,419 864.46,419.45 863.38,424.88ZM835,307C833.9,308.1 832.61,309 832.12,309C828.97,309 826.85,300.2 829.49,298.01C831.68,296.19 833.99,297.61 835.71,301.83C836.87,304.66 836.79,305.21 835,307ZM713.59,789.39C713.88,790.14 713.98,792.95 713.81,795.63C713.52,800.16 713.41,800.34 712.21,798.25C711.51,797.01 710.3,796 709.52,796C708.75,796 707.45,795.05 706.64,793.89C705.82,792.73 704.67,792.08 704.08,792.45C703.47,792.83 702.56,791.98 702,790.5C700.58,786.75 700.61,786.72 704.75,787.4C706.81,787.75 709.53,788.02 710.78,788.02C712.04,788.02 713.31,788.63 713.59,789.39ZM662.5,810.5C662.5,811.83 661.72,812.61 660.17,812.83C658.23,813.1 657.9,812.77 658.17,810.83C658.6,807.82 662.5,807.52 662.5,810.5ZM599.62,94.96C596.14,96.28 595.66,96.26 594.2,94.8C592.44,93.04 592.72,91.65 595.13,90.15C597.03,88.96 597.55,89.1 599.82,91.36L602.37,93.91L599.62,94.96ZM466.43,89.72C464.99,93.85 461.75,93.85 458.59,89.71C455.24,85.32 455.32,84.43 459.21,83.08C462.08,82.08 462.67,82.22 464.91,84.45C467.03,86.57 467.26,87.37 466.43,89.72ZM694,925.5C694,927.06 692.82,927.48 691.67,926.33C690.52,925.18 690.94,924 692.5,924C693.33,924 694,924.67 694,925.5ZM491.8,96.8C489.78,98.82 485.67,98.07 482.12,95.03C475.97,89.77 481.39,86.35 488.87,90.76C493.15,93.29 493.85,94.75 491.8,96.8ZM430,94C430,95.11 429.33,96 428.5,96C427.67,96 427,95.11 427,94C427,92.89 427.67,92 428.5,92C429.33,92 430,92.89 430,94ZM671,132.5C671,134.08 670.44,135 669.47,135C667.72,135 666.51,132.61 667.47,131.05C668.72,129.02 671,129.96 671,132.5ZM687,130.2C687,131.96 684.07,132.73 682.67,131.33C681.5,130.17 681.95,127.23 683.38,126.69C685.12,126.02 687,127.85 687,130.2ZM697.42,154.39C695.53,155.12 695.89,155.17 693.75,153.92C691.76,152.76 691.45,149.95 693.13,148.27C693.98,147.42 694.87,147.52 696.63,148.68C699.34,150.45 699.76,153.5 697.42,154.39ZM813.53,678.9C812.59,681.85 807,681.92 807,678.98C807,676.49 811.5,674.1 813.13,675.73C813.72,676.32 813.9,677.74 813.53,678.9ZM829.43,676.02C826.42,677.17 826.92,677.18 824.75,675.92C821.34,673.93 823.3,669 827.5,669C832.21,669 833.7,674.4 829.43,676.02Z"/></svg>